<svg xmlns="http://www.w3.org/2000/svg" xml:space="preserve" style="enable-background:new 0 0 380.85 78.2"
     viewBox="0 0 380.85 78.2"><path d="M364.98 12.28H341.8l-16.06 52.98h15.3l3.52-12.66h17.01v.09l3.61 12.66h15.68l-15.88-53.07zm-17.86 31.7 5.99-21.38 5.99 21.38h-11.98zM149.47 12.38h-47.61v13.03h22.05L99.77 65.35h49.99V52.32h-22.52l22.23-39.94zM315.95 43.41c2.38-1.31 4.37-3.19 5.7-5.63 1.42-2.72 2.18-5.72 2.09-8.81-.09-3.09-.95-6-2.47-8.72-1.71-2.63-4.18-4.69-7.03-6-3.04-1.41-6.65-2.16-10.74-2.16h-30.12v53.26h15.3V42.19l15.39 23.35h17.77l-13.87-20.07.86-.09c2.47-.09 4.94-.75 7.12-1.97zm-9.79-7.78c-1.24 1.22-2.85 1.97-4.66 1.97h-12.83V24.57h12.83c1.71 0 3.42.66 4.66 1.88 1.24 1.22 1.9 2.91 1.9 4.59s-.66 3.37-1.9 4.59zM238.41 10.69c-16.44 0-29.36 12.38-29.36 28.13 0 15.75 12.92 28.13 29.36 28.13 16.44 0 29.27-12.38 29.27-28.13.09-15.75-12.83-28.13-29.27-28.13zm10.26 38.35c-2.76 2.53-6.46 4.03-10.26 4.03-2.85 0-5.61-.84-7.98-2.34a14.517 14.517 0 0 1-5.32-6.38c-1.14-2.63-1.42-5.44-.86-8.16.57-2.72 1.9-5.25 3.9-7.31 2-1.97 4.56-3.38 7.41-3.84 2.76-.56 5.7-.28 8.36.84 2.66 1.03 4.85 2.91 6.46 5.25 1.62 2.34 2.47 5.06 2.47 7.88 0 3.75-1.52 7.31-4.18 10.03zM188.04 45.1c0 2.16-.86 4.31-2.47 5.81-1.62 1.59-3.71 2.44-5.89 2.44-2.18 0-4.37-.84-5.89-2.44-1.52-1.59-2.47-3.66-2.47-5.81V12.38h-15.39V43.6c0 6.19 2.47 12.1 6.94 16.5 4.47 4.41 10.45 6.85 16.82 6.85 6.27 0 12.35-2.44 16.82-6.85 4.46-4.41 6.94-10.31 6.94-16.5V12.38h-15.39V45.1h-.02zM376.84 13.66h.03l.88 3.14h.88l.86-3.14h.03v3.14h1.19v-4.48h-1.67l-.77 3h-.04l-.77-3h-1.74v4.48h1.12v-3.14zM372.5 16.8h1.21v-3.45h1.53v-1.03H371v1.03h1.5v3.45z"/>
    <path
        d="M65.94 78.2H18.61c-2.47 0-4.56-1.5-5.42-3.75-.86-2.25-.1-4.78 1.81-6.28l10.55-8.53H5.78c-2.47 0-4.56-1.5-5.42-3.75-.86-2.25-.19-4.69 1.71-6.28L22.5 32.83c1.71-1.41 4.18-1.13 5.61.47 1.43 1.69 1.14 4.13-.48 5.53L11.87 51.85h23.47l31.93-25.69H13.29c-3.52 0-6.84-1.41-9.41-3.84-2.47-2.44-3.8-5.72-3.8-9.19s1.33-6.75 3.9-9.28C6.45 1.41 9.78 0 13.29 0h45.99c2.47 0 4.56 1.5 5.42 3.75.86 2.25.1 4.69-1.81 6.28l-10.26 8.35h20.72c2.47 0 4.56 1.5 5.42 3.75.85 2.25.1 4.78-1.8 6.28L47.79 51.85h18.15c3.52 0 6.84 1.41 9.31 3.84 2.47 2.44 3.9 5.72 3.9 9.28v.19c0 3.47-1.33 6.75-3.9 9.28-2.47 2.45-5.8 3.76-9.31 3.76zm-41.15-7.78h41.15c1.43 0 2.76-.56 3.8-1.5 1.04-1.03 1.52-2.34 1.52-3.75v-.19c0-1.41-.57-2.72-1.52-3.75-1.05-1.03-2.38-1.5-3.8-1.5H38.09l-13.3 10.69zM13.29 7.78c-1.43 0-2.76.56-3.8 1.5-1.05 1.03-1.52 2.34-1.52 3.75 0 1.41.57 2.72 1.52 3.75 1.05 1.03 2.38 1.5 3.8 1.5h26.89L53.2 7.78H13.29z"
        style="fill:#00d2b9"/></svg>
