<svg xmlns="http://www.w3.org/2000/svg" xml:space="preserve" id="Layer_1" x="0" y="0" version="1.1"
     viewBox="0 0 380.9 78.2">
  <style>
    .st0{fill:#fff}
  </style>
    <path
        d="M365 12.3h-23.2l-16.1 53H341l3.5-12.7h17v.1l3.6 12.7h15.7L365 12.3zM347.1 44l6-21.4 6 21.4h-12zM149.5 12.4h-47.6v13H124L99.8 65.3h50v-13h-22.5l22.2-39.9zM316 43.4c2.4-1.3 4.4-3.2 5.7-5.6 1.4-2.7 2.2-5.7 2.1-8.8s-1-6-2.5-8.7c-1.7-2.6-4.2-4.7-7-6-3-1.4-6.6-2.2-10.7-2.2h-30.1v53.3h15.3V42.2l15.4 23.4H322l-14-20.1.9-.1c2.4-.1 4.9-.8 7.1-2zm-9.8-7.8c-1.2 1.2-2.9 2-4.7 2h-12.8v-13h12.8c1.7 0 3.4.7 4.7 1.9s1.9 2.9 1.9 4.6c0 1.6-.7 3.3-1.9 4.5zM238.4 10.7C222 10.7 209 23.1 209 38.8s12.9 28.1 29.4 28.1 29.3-12.4 29.3-28.1c.1-15.7-12.8-28.1-29.3-28.1zM248.7 49c-2.8 2.5-6.5 4-10.3 4-2.9 0-5.6-.8-8-2.3-2.4-1.6-4.2-3.8-5.3-6.4-1.1-2.6-1.4-5.4-.9-8.2.6-2.7 1.9-5.2 3.9-7.3 2-2 4.6-3.4 7.4-3.8 2.8-.6 5.7-.3 8.4.8 2.7 1 4.9 2.9 6.5 5.2 1.6 2.3 2.5 5.1 2.5 7.9 0 3.9-1.6 7.4-4.2 10.1zM188 45.1c0 2.2-.9 4.3-2.5 5.8-1.6 1.6-3.7 2.4-5.9 2.4s-4.4-.8-5.9-2.4c-1.5-1.6-2.5-3.7-2.5-5.8V12.4h-15.4v31.2c0 6.2 2.5 12.1 6.9 16.5 4.5 4.4 10.4 6.8 16.8 6.8 6.3 0 12.4-2.4 16.8-6.8 4.5-4.4 6.9-10.3 6.9-16.5V12.4h-15.4l.2 32.7zM376.8 13.7l.9 3.1h.9l.9-3.1v3.1h1.2v-4.5H379l-.8 3-.8-3h-1.7v4.5h1.1v-3.1zM372.5 16.8h1.2v-3.4h1.5v-1H371v1h1.5v3.4z"
        class="st0"/>
    <path fill="#00d2b9"
          d="M65.9 78.2H18.6c-2.5 0-4.6-1.5-5.4-3.8-.9-2.2-.1-4.8 1.8-6.3l10.5-8.5H5.8c-2.5 0-4.6-1.5-5.4-3.8s-.2-4.7 1.7-6.3l20.4-16.8c1.7-1.4 4.2-1.1 5.6.5 1.4 1.7 1.1 4.1-.5 5.5l-15.8 13h23.5L67.2 26h-54c-3.5 0-6.8-1.4-9.4-3.8C1.3 19.8 0 16.5 0 13s1.4-6.6 4-9.2C6.4 1.4 9.8 0 13.3 0h46c2.5 0 4.6 1.5 5.4 3.8s.1 4.7-1.8 6.3l-10.3 8.4h20.7c2.5 0 4.6 1.5 5.4 3.8.8 2.2.1 4.8-1.8 6.3L47.8 51.8H66c3.5 0 6.8 1.4 9.3 3.8 2.5 2.4 3.9 5.7 3.9 9.3v.2c0 3.5-1.3 6.8-3.9 9.3-2.5 2.5-5.9 3.8-9.4 3.8zm-41.1-7.8H66c1.4 0 2.8-.6 3.8-1.5 1-1 1.5-2.3 1.5-3.8V65c0-1.4-.6-2.7-1.5-3.8-1.1-1-2.4-1.5-3.8-1.5H38.1L24.8 70.4zM13.3 7.8c-1.4 0-2.8.6-3.8 1.5C8.4 10.3 8 11.6 8 13s.6 2.7 1.5 3.8c1.1 1 2.4 1.5 3.8 1.5h26.9l13-10.5H13.3z"/>
</svg>
